<svg width="92" height="293" viewBox="0 0 92 293" fill="none" xmlns="http://www.w3.org/2000/svg">
<path fill-rule="evenodd" clip-rule="evenodd" d="M20.5 285H2L1 293H90L87.5 285H69V276C69.1681 270.286 69.9463 265.373 70.6624 260.853C72.0767 251.926 73.2487 244.528 69 235.5L67.5 234C67.8334 232.333 68.3 228.2 67.5 225C68.555 224.648 68.126 221.576 67.7786 219.088C67.632 218.039 67.5 217.093 67.5 216.5C67.5 216.208 67.649 215.544 67.8694 214.561C69.1594 208.81 72.8951 192.155 63.5 175.5C63.1 172.3 64 167.167 64.5 165C65.6667 164 68.2 161.5 69 159.5C69.4794 159.979 69.7034 160.765 70.0148 161.857C70.6779 164.182 71.737 167.897 76.5 173C76.5 174.482 76.4701 175.715 76.4441 176.788C76.2858 183.324 76.2701 183.97 84 199C84 201.676 83.2045 202.263 82.2344 202.98C81.029 203.87 79.5541 204.959 79 210.5C79 211.288 78.3008 212.232 77.668 213.086C76.6954 214.399 75.8797 215.5 78 215.5C79.0657 215.5 80.3585 213.967 81.5154 212.595C82.5297 211.392 83.4394 210.313 84 210.5C84.5 212.167 85 216 83 218C81 220.5 82 222 83 223C84.3714 221.629 85.3589 220.795 86.1732 220.107C87.4372 219.039 88.2837 218.325 89.5 216.5C89.6667 212.333 90.1 203.8 90.5 203C91.7 202.2 91 200 90.5 199V178C90 176 88.6 171.6 87 170C85.7531 166.051 85.37 162.621 85.0608 159.853C84.626 155.96 84.3374 153.377 82 152.5C83.5 140.5 82.4 130.1 68 126.5C66.3334 124 61.6 119 56 119V108L57 107V100C58 99.1666 59.4 97 57 95V92.5C57.8333 90.6666 57.5 88 54 88C54 83 46.5 81 48 88H45.5C48 82 40 82 39 87.5C36.5 89.1666 32.4 92.9 36 94.5C36 95.0934 35.6919 95.5547 35.3761 96.0277C34.6274 97.1488 33.8351 98.3351 37 101.5C36.6 104.3 36.8333 106.333 37 107L38 109V113.5C37 114.167 35 115.7 35 116.5C34.5022 116.002 34.0044 115.226 33.4218 114.317C31.6637 111.574 29.1333 107.627 23.5 106.5C23.5 106.055 23.5098 105.606 23.5196 105.151C23.6098 101.002 23.7095 96.4072 16.5 91C17.3133 84.7647 15.7748 80.7343 14.1956 76.5975C12.8623 73.1046 11.5 69.5358 11.5 64.5C13 64 15.6 62.3 14 59.5V54V53H16V47L14 46H13V44C15.1667 42.5 19.4 39.1 19 37.5V35H16C17.4771 31.6237 19.3996 30.8301 21.1659 30.1009C23.5848 29.1023 25.711 28.2245 26 21C25 23.1667 22.4 27.2 20 26C20.1756 24.0688 20.906 22.939 21.65 21.788C23.025 19.6611 24.4466 17.462 22.5 10C22.2058 10.7356 22.0847 11.4279 21.9712 12.0769C21.6989 13.6337 21.4702 14.9414 19 16C19 10 19 4.5 14 0.5C14 2.04849 14.1135 3.51186 14.2188 4.86981C14.5556 9.21204 14.8089 12.4765 11 14C11.5 9.5 11.5 6 9 4C9 12.7773 8.24764 13.7301 7.15565 15.113C6.25708 16.251 5.12854 17.6802 4 24C3.16667 24.1667 1.8 23.1 3 17.5C-1.69723 27.8339 0.862131 29.1461 3.55383 30.5261C5.15993 31.3496 6.81315 32.1972 7 35H3V37.5C3.33333 39 4.9 42.4 8.5 44V46H7C5.66667 46.8333 3 49.2 3 52C2.6 54.4 2.5 66.3333 2.5 72C2.64589 75.0637 2.61299 77.872 2.58265 80.4622C2.50901 86.749 2.45042 91.7507 5 96C6.70501 110.066 9.13679 113.958 13.5345 120.996C14.2953 122.213 15.115 123.525 16 125C14.2103 131.801 17.5453 139.626 21.7861 149.578C23.4693 153.527 25.2952 157.812 27 162.5C27.1667 166.5 27.4 175.6 27 180C26.7743 180.451 26.5104 180.909 26.2263 181.402C23.9925 185.277 20.5078 191.321 24.5 213.5C24.5 214.176 24.4857 214.867 24.4716 215.547C24.4024 218.893 24.3381 222 26 222C24.5 224.5 23 228 23.5 233C16.6801 242.093 17.3249 247.454 18.9077 260.613C19.4137 264.82 20.0155 269.823 20.5 276V285ZM31.0839 285H59.5C59.5 284.333 59.7 282.7 60.5 281.5C60.9521 273.814 59.7688 270.625 58.0592 266.018C57.8783 265.53 57.6914 265.026 57.5 264.5C56.6052 260.921 55.6214 258.454 54.7743 256.329C52.7811 251.33 51.5439 248.228 54 237C54 237 54.5 235.5 54 233.5C53.2493 232.082 52.5682 230.956 51.9544 229.942C48.8884 224.874 47.5 222.579 47.5 200.5C46.3 200.1 45.3333 200.333 45 200.5C45 204 43.5 229.5 37 234V240C38.0776 248.98 36.8328 251.509 34.7487 255.743C33.9317 257.403 32.9857 259.325 32 262C30.6667 266.5 28.3 276.7 29.5 281.5C29.6281 281.628 29.7561 281.748 29.8811 281.865C30.6627 282.596 31.321 283.213 31.0839 285Z" fill="url(#paint0_linear_1_17)"/>
<defs>
<linearGradient id="paint0_linear_1_17" x1="21.5" y1="106.5" x2="138.5" y2="184" gradientUnits="userSpaceOnUse">
<stop stop-color="#009DFF"/>
<stop offset="1" stop-color="#9504C6"/>
</linearGradient>
</defs>
</svg>
