<svg xmlns="http://www.w3.org/2000/svg" width="109" height="20" viewBox="0 0 109 20"><g transform="translate(97.476 205.726)"><path d="M96.59-205.726a6.257,6.257,0,0,0-6.264,6.25v7.5H82.808v6.25h8.77a6.257,6.257,0,0,0,6.264-6.25v-7.5h7.517v-6.25Z" transform="translate(-152.721 0)" fill="#070807"/><path d="M246.7-205.726v6.25h6.264v13.75h7.517v-13.75h6.264v-6.25Z" transform="translate(-291.556)" fill="#070807"/><path d="M-89.959-191.976v-13.75h-7.517v13.75a6.257,6.257,0,0,0,6.264,6.25h8.77v-6.25Z" transform="translate(0 0)" fill="#070807"/><rect width="7.517" height="20" transform="translate(-79.936 -205.726)" fill="#070807"/><path d="M414.25-199.476a6.257,6.257,0,0,0-6.264-6.25h-7.517a6.257,6.257,0,0,0-6.264,6.25h0v7.5a6.257,6.257,0,0,0,6.264,6.25h7.517a6.257,6.257,0,0,0,6.264-6.25v-7.5Zm-6.264,7.5h-7.517v-7.5h7.517Z" transform="translate(-416.508 0)" fill="#070807"/><rect width="7.517" height="7.5" transform="translate(4.007 -199.476)" fill="#ffd103"/></g></svg>