<svg width="159" height="34" viewBox="0 0 159 34" fill="none" xmlns="http://www.w3.org/2000/svg">
<g clip-path="url(#clip0_1190_114106)">
<path d="M26.458 15.1082V17.4969C26.458 20.2447 25.2088 22.7064 23.2467 24.3435L28.8071 33.0433C31.7898 31.6831 33.8616 28.6797 33.8616 25.1894V15.1051H26.458V15.1082Z" fill="#309165"/>
<path d="M26.458 12.47V10.6107C26.458 8.83669 25.0138 7.39434 23.2376 7.39434H18.2501V0H15.6116V7.42781C11.0232 7.8021 7.40361 11.6484 7.40361 16.3254V18.8723H0V21.5075H7.40666V23.2085C7.40666 24.9825 8.85082 26.4249 10.6271 26.4249H17.5219C18.7558 26.4249 19.9319 26.1754 21.0013 25.722L26.1472 33.7736C27.0887 33.6732 27.9844 33.4206 28.8131 33.0433L23.2528 24.3435C25.2119 22.7034 26.4641 20.2447 26.4641 17.4969V15.1082H33.8677V12.473H26.4641L26.458 12.47ZM23.8195 17.4969C23.8195 20.9658 20.9921 23.7897 17.5188 23.7897H10.624C10.3041 23.7897 10.0451 23.531 10.0451 23.2115V16.3254C10.0451 12.8564 12.8725 10.0326 16.3458 10.0326H23.2406C23.5605 10.0326 23.8195 10.2912 23.8195 10.6107V17.4969Z" fill="#214233"/>
<path d="M23.2406 10.0326H16.3458C12.8725 10.0326 10.0451 12.8564 10.0451 16.3254V23.2115C10.0451 23.531 10.3041 23.7897 10.624 23.7897H17.5188C20.9921 23.7897 23.8195 20.9658 23.8195 17.4969V10.6107C23.8195 10.2912 23.5605 10.0326 23.2406 10.0326ZM16.9308 19.7426C15.3648 19.7426 14.0943 18.4737 14.0943 16.9096C14.0943 15.3455 15.3648 14.0766 16.9308 14.0766C18.4968 14.0766 19.7673 15.3455 19.7673 16.9096C19.7673 18.4737 18.4968 19.7426 16.9308 19.7426Z" fill="#EBE6D8"/>
<path d="M18.2531 7.39434H23.2406C25.0169 7.39434 26.4611 8.83669 26.4611 10.6107V12.47H33.8647V8.62977C33.8647 3.86149 29.9953 0 25.2241 0H18.2531V7.39434Z" fill="#20BF78"/>
<path d="M7.40666 18.8753V16.3284C7.40666 11.6514 11.0262 7.80514 15.6146 7.43086V0H8.64364C3.86938 0 0 3.86453 0 8.62977V18.8723H7.40666V18.8753Z" fill="#00E67E"/>
<path d="M20.9982 25.722C19.9288 26.1754 18.7528 26.4249 17.5188 26.4249H10.624C8.84777 26.4249 7.40361 24.9825 7.40361 23.2085V21.5075H0V25.1864C0 29.9547 3.86938 33.8162 8.64059 33.8162H25.221C25.5318 33.8162 25.8395 33.801 26.1442 33.7675L20.9982 25.7159V25.722Z" fill="#20BF78"/>
<path d="M16.9308 19.7426C18.4974 19.7426 19.7673 18.4742 19.7673 16.9096C19.7673 15.345 18.4974 14.0766 16.9308 14.0766C15.3642 14.0766 14.0943 15.345 14.0943 16.9096C14.0943 18.4742 15.3642 19.7426 16.9308 19.7426Z" fill="#214233"/>
<path d="M131.489 20.8837C131.489 22.8525 130.709 24.4165 129.176 25.5303C127.659 26.6318 125.529 27.1917 122.848 27.1917C121.84 27.1917 120.749 27.0822 119.616 26.8692C118.482 26.6531 117.413 26.364 116.432 26.005C115.445 25.6428 114.613 25.229 113.961 24.7787L113.891 24.73C113.933 24.663 113.976 24.5961 114.019 24.5261C114.588 23.5797 114.984 22.5634 115.213 21.4771L115.277 21.5197C117.663 23.1902 120.88 23.7836 122.909 23.7836C125.959 23.7836 127.443 22.9103 127.443 21.115C127.443 20.3725 127.196 19.8247 126.684 19.4413C126.154 19.0427 125.215 18.7171 123.893 18.4706L120.694 17.8894C116.429 17.1196 114.265 15.1538 114.265 12.047C114.265 10.0995 115.009 8.55979 116.477 7.47346C117.928 6.3993 119.954 5.85461 122.504 5.85461C123.847 5.85461 125.161 5.99763 126.413 6.28063C127.671 6.56362 128.658 6.94094 129.35 7.39434C130.099 7.89338 130.477 8.47154 130.477 9.1136C130.477 9.49093 130.355 9.89868 130.118 10.3186C129.883 10.7385 129.585 11.0672 129.231 11.2954L129.103 11.3775L129 11.265C128.646 10.8755 128.122 10.5255 127.446 10.2182C126.751 9.90477 125.971 9.65524 125.124 9.47267C124.277 9.29313 123.412 9.20185 122.559 9.20185C119.588 9.20185 118.144 10.0569 118.144 11.8127C118.144 12.476 118.406 12.9903 118.942 13.3828C119.503 13.7906 120.438 14.1223 121.721 14.3688L124.917 14.95C127.19 15.3608 128.869 16.0424 129.904 16.9705C130.959 17.9107 131.492 19.2253 131.492 20.8806L131.489 20.8837ZM155.918 15.1873H149.794L149.742 15.2756C149.617 15.4825 149.51 15.7411 149.419 16.0424C149.327 16.3467 149.279 16.657 149.279 16.9674C149.279 17.4786 149.44 17.8925 149.754 18.1998C150.068 18.5041 150.546 18.6593 151.174 18.6593H154.397V23.5858C154.187 23.6132 153.855 23.6436 153.386 23.6741C152.801 23.7136 152.243 23.7319 151.725 23.7319C149.206 23.7319 147.237 23.1081 145.882 21.8757C144.529 20.6494 143.846 18.8601 143.846 16.5627C143.846 15.1082 144.151 13.8302 144.754 12.756C145.355 11.6879 146.205 10.8389 147.277 10.2395C148.349 9.63699 149.614 9.33269 151.028 9.33269C152.149 9.33269 153.212 9.50918 154.196 9.85912C155.174 10.206 155.933 10.6655 156.451 11.2224L156.554 11.3349L156.682 11.2497C157.127 10.9455 157.487 10.5864 157.752 10.1847C158.02 9.77088 158.157 9.36617 158.157 8.98276C158.157 8.3407 157.788 7.77167 157.06 7.29392C156.405 6.85878 155.525 6.50885 154.443 6.25324C153.371 5.99763 152.24 5.86983 151.085 5.86983C148.877 5.86983 146.905 6.32018 145.227 7.21177C143.545 8.10639 142.216 9.36921 141.275 10.9668C140.333 12.5673 139.855 14.4479 139.855 16.5627C139.855 18.6776 140.333 20.6676 141.278 22.2469C142.222 23.8293 143.587 25.0647 145.336 25.9167C147.079 26.7687 149.181 27.2008 151.582 27.2008C152.255 27.2008 152.999 27.1765 153.861 27.1278C154.705 27.0791 155.506 27.0152 156.241 26.9361C156.978 26.86 157.572 26.7809 158.014 26.7018L158.16 26.6744V17.3448C158.16 15.9359 157.383 15.1903 155.918 15.1903V15.1873ZM136.632 6.49059C136.333 6.4206 136.047 6.38409 135.76 6.38409C135.175 6.38409 134.694 6.53928 134.325 6.84661C133.944 7.16308 133.749 7.6043 133.749 8.16116V26.6714H137.57V6.7888L137.454 6.7462C137.198 6.64882 136.921 6.56362 136.632 6.49363V6.49059Z" fill="#20BF78"/>
<path d="M65.359 23.172C64.8654 21.9396 64.3322 20.625 63.7746 19.2618C63.1805 17.8225 62.6291 16.4927 62.0867 15.1934C61.5048 13.7997 60.9686 12.5643 60.4567 11.411C59.9114 10.1938 59.4635 9.20489 59.0887 8.38938C58.7018 7.54649 58.3941 6.94094 58.1778 6.58492L58.1656 6.56666L58.1503 6.55145C57.9889 6.39322 57.672 6.24107 57.1754 6.08588C56.6879 5.93373 56.2918 5.8607 55.9597 5.8607C55.2255 5.8607 54.6131 6.03415 54.1378 6.37191C53.6686 6.70968 53.2572 7.26654 52.916 8.02727C51.9868 10.0813 51.0453 12.2113 50.1221 14.3627C49.1837 16.5505 48.291 18.6897 47.4745 20.7133C46.6488 22.7581 45.8018 24.9217 45.1407 26.6683H49.0162C49.3483 25.7402 49.7352 24.6995 50.0734 23.808C50.3842 22.9924 50.6919 22.2074 50.9874 21.4679H60.4902C60.6548 21.8544 60.8467 22.3565 61.0661 22.962C61.3098 23.6345 61.5597 24.3009 61.8095 24.9399C62.0715 25.6124 62.3122 26.2575 62.4615 26.6653H66.6782C66.3431 25.7159 65.8403 24.3831 65.3559 23.1659L65.359 23.172ZM59.1862 18.0629H52.3524C52.7027 17.1774 53.0897 16.231 53.504 15.2482C53.9336 14.2288 54.3754 13.2033 54.8111 12.1991C55.1676 11.3806 55.5058 10.629 55.8165 9.96258C55.9628 10.2577 56.1364 10.6381 56.3436 11.1098C56.627 11.7457 56.9347 12.476 57.2881 13.3402C57.4465 13.7328 57.608 14.1314 57.7725 14.53C57.9553 14.9773 58.1381 15.4277 58.321 15.8811C58.647 16.6875 58.9303 17.4026 59.1862 18.0629ZM79.1394 12.3482C77.9634 11.6666 76.5588 11.3228 74.9623 11.3228C73.3658 11.3228 71.9156 11.6727 70.6999 12.3635C69.4873 13.0542 68.5245 14.0006 67.8421 15.1751C67.1596 16.3497 66.8153 17.7038 66.8153 19.2009C66.8153 20.6981 67.1626 22.0309 67.8451 23.1568C68.5276 24.2826 69.4568 25.1712 70.6024 25.7919C71.748 26.4127 73.0398 26.7292 74.4413 26.7292C75.5686 26.7292 76.568 26.5223 77.4119 26.1145C78.1035 25.7828 78.7037 25.3538 79.2034 24.8395C79.1821 26.4249 78.7372 27.6451 77.8781 28.4697C76.9945 29.3126 75.7301 29.7417 74.1184 29.7417C73.3201 29.7417 72.4701 29.6504 71.5957 29.4678C70.7212 29.2883 70.0113 29.0722 69.4812 28.8288L69.3045 28.7466L68.2808 31.5522L68.427 31.6222C69.1339 31.9569 70.054 32.2339 71.16 32.4499C72.2659 32.6629 73.3506 32.7724 74.3804 32.7724C77.095 32.7724 79.2125 32.0026 80.675 30.4811C82.1374 28.9596 82.8778 26.7687 82.8778 23.9662V19.9008C82.8778 18.1177 82.5487 16.5688 81.8967 15.2999C81.2447 14.0249 80.3155 13.0329 79.1364 12.3513L79.1394 12.3482ZM79.2613 19.1401C79.2613 20.479 78.8622 21.5714 78.0761 22.3869C77.29 23.1994 76.2328 23.6102 74.9319 23.6102C73.6309 23.6102 72.5737 23.1994 71.7876 22.3869C71.0015 21.5744 70.6024 20.482 70.6024 19.1401C70.6024 17.7981 71.0015 16.7088 71.7876 15.8963C72.5737 15.0838 73.6309 14.6731 74.9319 14.6731C76.2328 14.6731 77.287 15.0838 78.0761 15.8963C78.8622 16.7118 79.2613 17.8012 79.2613 19.1431V19.1401ZM96.1647 13.5624C96.1647 13.9001 96.0733 14.241 95.8966 14.5757C95.7168 14.9165 95.5401 15.1386 95.3542 15.2543L95.2689 15.309L95.1775 15.2634C94.3549 14.8526 93.4135 14.6426 92.3776 14.6426C90.2083 14.6426 89.1541 15.7624 89.1541 18.0659V26.6683H85.4797V17.1074C85.4797 15.2999 86.0525 13.8667 87.1828 12.8503C88.3071 11.837 89.8792 11.3228 91.8535 11.3228C93.1941 11.3228 94.2513 11.5267 94.9917 11.9253C95.7686 12.3452 96.1616 12.896 96.1616 13.5624H96.1647ZM111.682 15.1843C110.972 14.0036 109.985 13.0512 108.751 12.3604C107.517 11.6697 106.112 11.3228 104.577 11.3228C103.041 11.3228 101.643 11.6727 100.418 12.3635C99.1931 13.0542 98.209 14.0036 97.487 15.1843C96.7649 16.368 96.3993 17.719 96.3993 19.1979C96.3993 20.6768 96.7649 22.0278 97.487 23.2115C98.206 24.3952 99.1931 25.3446 100.418 26.0323C101.643 26.7231 103.041 27.073 104.577 27.073C106.112 27.073 107.517 26.7231 108.751 26.0354C109.985 25.3446 110.972 24.3952 111.682 23.2115C112.395 22.0248 112.754 20.6768 112.754 19.1979C112.754 17.719 112.392 16.368 111.682 15.1843ZM108.934 19.2009C108.934 20.0956 108.745 20.9019 108.373 21.6018C108.001 22.2956 107.48 22.8433 106.825 23.2298C106.167 23.6193 105.409 23.814 104.574 23.814C103.739 23.814 102.98 23.6162 102.325 23.2298C101.667 22.8433 101.149 22.2956 100.777 21.6018C100.406 20.905 100.217 20.0986 100.217 19.2009C100.217 18.3033 100.406 17.4969 100.777 16.8031C101.146 16.1093 101.667 15.5616 102.325 15.1721C102.983 14.7826 103.739 14.5878 104.574 14.5878C105.409 14.5878 106.167 14.7856 106.825 15.1721C107.48 15.5585 108.001 16.1093 108.373 16.8031C108.745 17.4999 108.934 18.3063 108.934 19.2009Z" fill="#EBE6D8"/>
</g>
<defs>
<clipPath id="clip0_1190_114106">
<rect width="158.16" height="33.8223" fill="white"/>
</clipPath>
</defs>
</svg>
