{
  "asset": {
    "version": "2.0",
    "generator": "THREE.GLTFExporter"
  },
  "scenes": [
    {
      "name": "Scene",
      "nodes": [
        6
      ]
    }
  ],
  "scene": 0,
  "nodes": [
    {
      "name": "Plane003_1",
      "mesh": 1
    },
    {
      "name": "Plane003_2",
      "mesh": 2
    },
    {
      "translation": [
        -0.0005002394318580627,
        0.14344213902950287,
        -0.26595935225486755
      ],
      "scale": [
        0.8609151244163513,
        0.5575608015060425,
        0.5859630703926086
      ],
      "name": "Plane002",
      "extras": {
        "name": "Plane.002"
      },
      "children": [
        0,
        1
      ]
    },
    {
      "rotation": [
        0,
        -1,
        0,
        8.018194108672105e-9
      ],
      "translation": [
        0.000015634619558113627,
        -0.039287954568862915,
        0.9976024627685547
      ],
      "scale": [
        -1.8584187030792236,
        -3.0406229496002197,
        -3.0406229496002197
      ],
      "name": "Plane003",
      "extras": {
        "name": "Plane.003"
      },
      "mesh": 4
    },
    {
      "translation": [
        0,
        0.24767228960990906,
        -0.9999998807907104
      ],
      "scale": [
        -0.9999999403953552,
        -0.9999998211860657,
        -1
      ],
      "name": "top",
      "extras": {
        "name": "top"
      },
      "mesh": 3,
      "children": [
        3
      ]
    },
    {
      "rotation": [
        0,
        0.6427876353263855,
        0,
        0.766044557094574
      ],
      "scale": [
        0.5380918979644775,
        0.3288799524307251,
        0.3288799524307251
      ],
      "name": "bottom",
      "extras": {
        "name": "bottom"
      },
      "mesh": 0,
      "children": [
        2,
        4
      ]
    },
    {
      "name": "laptop.glb",
      "children": [
        5
      ]
    }
  ],
  "bufferViews": [
    {
      "buffer": 0,
      "byteOffset": 0,
      "byteLength": 21612,
      "target": 34962,
      "byteStride": 12
    },
    {
      "buffer": 0,
      "byteOffset": 21612,
      "byteLength": 21612,
      "target": 34962,
      "byteStride": 12
    },
    {
      "buffer": 0,
      "byteOffset": 43224,
      "byteLength": 14408,
      "target": 34962,
      "byteStride": 8
    },
    {
      "buffer": 0,
      "byteOffset": 57632,
      "byteLength": 14064,
      "target": 34963
    },
    {
      "buffer": 0,
      "byteOffset": 71696,
      "byteLength": 99732,
      "target": 34962,
      "byteStride": 12
    },
    {
      "buffer": 0,
      "byteOffset": 171428,
      "byteLength": 99732,
      "target": 34962,
      "byteStride": 12
    },
    {
      "buffer": 0,
      "byteOffset": 271160,
      "byteLength": 66488,
      "target": 34962,
      "byteStride": 8
    },
    {
      "buffer": 0,
      "byteOffset": 337648,
      "byteLength": 57024,
      "target": 34963
    },
    {
      "buffer": 0,
      "byteOffset": 394672,
      "byteLength": 15648,
      "target": 34962,
      "byteStride": 12
    },
    {
      "buffer": 0,
      "byteOffset": 410320,
      "byteLength": 15648,
      "target": 34962,
      "byteStride": 12
    },
    {
      "buffer": 0,
      "byteOffset": 425968,
      "byteLength": 10432,
      "target": 34962,
      "byteStride": 8
    },
    {
      "buffer": 0,
      "byteOffset": 436400,
      "byteLength": 8952,
      "target": 34963
    },
    {
      "buffer": 0,
      "byteOffset": 445352,
      "byteLength": 20568,
      "target": 34962,
      "byteStride": 12
    },
    {
      "buffer": 0,
      "byteOffset": 465920,
      "byteLength": 20568,
      "target": 34962,
      "byteStride": 12
    },
    {
      "buffer": 0,
      "byteOffset": 486488,
      "byteLength": 13712,
      "target": 34962,
      "byteStride": 8
    },
    {
      "buffer": 0,
      "byteOffset": 500200,
      "byteLength": 13200,
      "target": 34963
    },
    {
      "buffer": 0,
      "byteOffset": 513400,
      "byteLength": 48,
      "target": 34962,
      "byteStride": 12
    },
    {
      "buffer": 0,
      "byteOffset": 513448,
      "byteLength": 48,
      "target": 34962,
      "byteStride": 12
    },
    {
      "buffer": 0,
      "byteOffset": 513496,
      "byteLength": 32,
      "target": 34962,
      "byteStride": 8
    },
    {
      "buffer": 0,
      "byteOffset": 513528,
      "byteLength": 12,
      "target": 34963
    },
    {
      "buffer": 0,
      "byteOffset": 513540,
      "byteLength": 204
    },
    {
      "buffer": 0,
      "byteOffset": 513744,
      "byteLength": 816
    },
    {
      "buffer": 0,
      "byteOffset": 514560,
      "byteLength": 204
    },
    {
      "buffer": 0,
      "byteOffset": 514764,
      "byteLength": 816
    }
  ],
  "buffers": [
    {
      "byteLength": 515580,
      "uri": "data:application/octet-stream;base64,"
    }
  ],
  "accessors": [
    {
      "bufferView": 0,
      "componentType": 5126,
      "count": 1801,
      "max": [
        0.9996554255485535,
        0.2525199353694916,
        0.9996552467346191
      ],
      "min": [
        -0.9996554255485535,
        0.0005540494457818568,
        -0.9996552467346191
      ],
      "type": "VEC3"
    },
    {
      "bufferView": 1,
      "componentType": 5126,
      "count": 1801,
      "max": [
        0.999969482421875,
        1,
        0.999969482421875
      ],
      "min": [
        -0.999969482421875,
        -1,
        -0.999969482421875
      ],
      "type": "VEC3"
    },
    {
      "bufferView": 2,
      "componentType": 5126,
      "count": 1801,
      "max": [
        0.8974431753158569,
        0.9950799942016602
      ],
      "min": [
        0.004920005798339844,
        0.004919886589050293
      ],
      "type": "VEC2"
    },
    {
      "bufferView": 3,
      "componentType": 5123,
      "count": 7032,
      "max": [
        1800
      ],
      "min": [
        0
      ],
      "type": "SCALAR"
    },
    {
      "bufferView": 4,
      "componentType": 5126,
      "count": 8311,
      "max": [
        0.9998427629470825,
        0.24315015971660614,
        0.9998405575752258
      ],
      "min": [
        -0.9998427629470825,
        -1.1641533292916506e-9,
        -0.9998405575752258
      ],
      "type": "VEC3"
    },
    {
      "bufferView": 5,
      "componentType": 5126,
      "count": 8311,
      "max": [
        0.9981078505516052,
        1,
        0.9847712516784668
      ],
      "min": [
        -0.9981078505516052,
        0.061464279890060425,
        -0.9847712516784668
      ],
      "type": "VEC3"
    },
    {
      "bufferView": 6,
      "componentType": 5126,
      "count": 8311,
      "max": [
        0.9809769988059998,
        0.9856927394866943
      ],
      "min": [
        0.014307275414466858,
        0.014307200908660889
      ],
      "type": "VEC2"
    },
    {
      "bufferView": 7,
      "componentType": 5123,
      "count": 28512,
      "max": [
        8310
      ],
      "min": [
        0
      ],
      "type": "SCALAR"
    },
    {
      "bufferView": 8,
      "componentType": 5126,
      "count": 1304,
      "max": [
        0.9996532201766968,
        0.2433232218027115,
        0.9996521472930908
      ],
      "min": [
        -0.9998427629470825,
        -1.1641533292916506e-9,
        -0.9998405575752258
      ],
      "type": "VEC3"
    },
    {
      "bufferView": 9,
      "componentType": 5126,
      "count": 1304,
      "max": [
        0.999725341796875,
        1,
        0.9979857802391052
      ],
      "min": [
        -0.999725341796875,
        -1,
        -0.9980162978172302
      ],
      "type": "VEC3"
    },
    {
      "bufferView": 10,
      "componentType": 5126,
      "count": 1304,
      "max": [
        0.7435197234153748,
        0.9856927394866943
      ],
      "min": [
        0.014307260513305664,
        0.12487387657165527
      ],
      "type": "VEC2"
    },
    {
      "bufferView": 11,
      "componentType": 5123,
      "count": 4476,
      "max": [
        1303
      ],
      "min": [
        0
      ],
      "type": "SCALAR"
    },
    {
      "bufferView": 12,
      "componentType": 5126,
      "count": 1714,
      "max": [
        0.9996552467346191,
        -0.00009754881466506049,
        1.9996554851531982
      ],
      "min": [
        -0.9996552467346191,
        -0.25196582078933716,
        0.0003447447088547051
      ],
      "type": "VEC3"
    },
    {
      "bufferView": 13,
      "componentType": 5126,
      "count": 1714,
      "max": [
        0.999908447265625,
        1,
        0.999908447265625
      ],
      "min": [
        -0.999908447265625,
        -1,
        -0.999908447265625
      ],
      "type": "VEC3"
    },
    {
      "bufferView": 14,
      "componentType": 5126,
      "count": 1714,
      "max": [
        0.9457477331161499,
        0.9951732158660889
      ],
      "min": [
        0.004826758056879044,
        0.004826664924621582
      ],
      "type": "VEC2"
    },
    {
      "bufferView": 15,
      "componentType": 5123,
      "count": 6600,
      "max": [
        1713
      ],
      "min": [
        0
      ],
      "type": "SCALAR"
    },
    {
      "bufferView": 16,
      "componentType": 5126,
      "count": 4,
      "max": [
        0.47665345668792725,
        0,
        0.2965376377105713
      ],
      "min": [
        -0.47665345668792725,
        0,
        -0.2965376377105713
      ],
      "type": "VEC3"
    },
    {
      "bufferView": 17,
      "componentType": 5126,
      "count": 4,
      "max": [
        0,
        -1,
        0
      ],
      "min": [
        0,
        -1,
        0
      ],
      "type": "VEC3"
    },
    {
      "bufferView": 18,
      "componentType": 5126,
      "count": 4,
      "max": [
        1.0032873153686523,
        1.0032715797424316
      ],
      "min": [
        -0.0032872334122657776,
        0.0013284683227539062
      ],
      "type": "VEC2"
    },
    {
      "bufferView": 19,
      "componentType": 5123,
      "count": 6,
      "max": [
        3
      ],
      "min": [
        0
      ],
      "type": "SCALAR"
    },
    {
      "bufferView": 20,
      "componentType": 5126,
      "count": 51,
      "max": [
        2.0833332538604736
      ],
      "min": [
        0
      ],
      "type": "SCALAR"
    },
    {
      "bufferView": 21,
      "componentType": 5126,
      "count": 51,
      "max": [
        0.17358867824077606,
        0.6427876949310303,
        0.004545580130070448,
        0.9866585731506348
      ],
      "min": [
        0,
        -0.02577926591038704,
        -0.028734443709254265,
        0.7660444378852844
      ],
      "type": "VEC4"
    },
    {
      "bufferView": 22,
      "componentType": 5126,
      "count": 51,
      "max": [
        2.0833332538604736
      ],
      "min": [
        0
      ],
      "type": "SCALAR"
    },
    {
      "bufferView": 23,
      "componentType": 5126,
      "count": 51,
      "max": [
        5.0461885336972045e-8,
        -0.4999999403953552,
        0.866025447845459,
        5.034044292528961e-8
      ],
      "min": [
        0,
        -1,
        0,
        1.3358127937124209e-8
      ],
      "type": "VEC4"
    }
  ],
  "materials": [
    {
      "pbrMetallicRoughness": {
        "baseColorFactor": [
          0.13964736461639404,
          0.04162423685193062,
          0.22825439274311066,
          1
        ],
        "metallicFactor": 0,
        "roughnessFactor": 0.5480519533157349
      },
      "doubleSided": true,
      "name": "shell"
    },
    {
      "pbrMetallicRoughness": {
        "baseColorFactor": [
          0,
          0,
          0,
          1
        ],
        "metallicFactor": 0,
        "roughnessFactor": 0.5
      },
      "doubleSided": true,
      "name": "keyboard"
    },
    {
      "pbrMetallicRoughness": {
        "baseColorFactor": [
          1,
          0.07219737023115158,
          0,
          1
        ],
        "metallicFactor": 0,
        "roughnessFactor": 0.5
      },
      "doubleSided": true,
      "name": "Material.004"
    },
    {
      "pbrMetallicRoughness": {
        "metallicFactor": 0,
        "roughnessFactor": 0.5090909004211426,
        "baseColorTexture": {
          "index": 0,
          "texCoord": 0
        }
      },
      "emissiveFactor": [
        1,
        1,
        1
      ],
      "emissiveTexture": {
        "index": 0,
        "texCoord": 0
      },
      "doubleSided": true,
      "name": "display",
      "extensions": {
        "KHR_materials_clearcoat": {
          "clearcoatFactor": 1,
          "clearcoatRoughnessFactor": 0.029999999329447746
        }
      }
    }
  ],
  "meshes": [
    {
      "primitives": [
        {
          "mode": 4,
          "attributes": {
            "POSITION": 0,
            "NORMAL": 1,
            "TEXCOORD_0": 2
          },
          "indices": 3,
          "material": 0
        }
      ]
    },
    {
      "primitives": [
        {
          "mode": 4,
          "attributes": {
            "POSITION": 4,
            "NORMAL": 5,
            "TEXCOORD_0": 6
          },
          "indices": 7,
          "material": 1
        }
      ]
    },
    {
      "primitives": [
        {
          "mode": 4,
          "attributes": {
            "POSITION": 8,
            "NORMAL": 9,
            "TEXCOORD_0": 10
          },
          "indices": 11,
          "material": 2
        }
      ]
    },
    {
      "primitives": [
        {
          "mode": 4,
          "attributes": {
            "POSITION": 12,
            "NORMAL": 13,
            "TEXCOORD_0": 14
          },
          "indices": 15,
          "material": 0
        }
      ]
    },
    {
      "primitives": [
        {
          "mode": 4,
          "attributes": {
            "POSITION": 16,
            "NORMAL": 17,
            "TEXCOORD_0": 18
          },
          "indices": 19,
          "material": 3
        }
      ]
    }
  ],
  "textures": [
    {
      "sampler": 0,
      "source": 0,
      "name": "laptop-screen0001-0030"
    }
  ],
  "samplers": [
    {
      "magFilter": 9729,
      "minFilter": 9987,
      "wrapS": 10497,
      "wrapT": 10497
    }
  ],
  "images": [
    {
      "mimeType": "image/png",
      "uri": "data:image/png;base64,"
    }
  ],
  "animations": [
    {
      "name": "laptopAnim",
      "samplers": [
        {
          "input": 20,
          "output": 21,
          "interpolation": "LINEAR"
        }
      ],
      "channels": [
        {
          "sampler": 0,
          "target": {
            "node": 5,
            "path": "rotation"
          }
        }
      ]
    },
    {
      "name": "topAction",
      "samplers": [
        {
          "input": 22,
          "output": 23,
          "interpolation": "LINEAR"
        }
      ],
      "channels": [
        {
          "sampler": 0,
          "target": {
            "node": 4,
            "path": "rotation"
          }
        }
      ]
    }
  ],
  "extensionsUsed": [
    "KHR_materials_clearcoat"
  ]
}